<?xml version="1.0" encoding="UTF-8"?>
<svg version="1.1" xmlns="http://www.w3.org/2000/svg" width="512" height="512">
<path d="M0 0 C1.43423576 -0.00302607 2.8684699 -0.00691783 4.30270123 -0.01159257 C8.21666506 -0.02182278 12.13053677 -0.01970352 16.04450798 -0.01541197 C20.27641651 -0.01293562 24.50830337 -0.02197021 28.74020386 -0.02944946 C37.02090231 -0.04217377 45.3015683 -0.04399295 53.58227488 -0.0416492 C60.31672747 -0.03986317 67.05117023 -0.04162179 73.78562164 -0.04587364 C74.74562612 -0.04646883 75.7056306 -0.04706402 76.69472612 -0.04767724 C78.64525928 -0.04888905 80.59579244 -0.05010319 82.54632559 -0.05131962 C100.823282 -0.06218664 119.10021994 -0.06003677 137.37717739 -0.05393478 C154.07587225 -0.04876763 170.77450875 -0.06001721 187.47319207 -0.07903299 C204.64189666 -0.09843328 221.81057367 -0.10666347 238.97928929 -0.10290974 C248.60914484 -0.10100086 258.23895073 -0.1034546 267.8687973 -0.11762428 C276.06786565 -0.12956708 284.26685377 -0.13091064 292.46592328 -0.11883412 C296.64400991 -0.11296543 300.82195003 -0.11178989 305.0000267 -0.12383652 C308.83454229 -0.13476345 312.66879024 -0.1315121 316.50329366 -0.11757483 C318.52671159 -0.11371387 320.55014172 -0.12441912 322.57353091 -0.13587171 C334.34267798 -0.06721259 346.15164314 1.45210436 356.87921143 6.57319641 C357.54452881 6.87878479 358.20984619 7.18437317 358.89532471 7.4992218 C383.03698082 18.79639154 400.84094116 37.89671611 410.89093018 62.50288391 C414.85154323 73.83995472 415.86186248 84.73501739 415.82740784 96.69398499 C415.83043391 98.12822074 415.83432566 99.56245489 415.8390004 100.99668622 C415.84923062 104.91065005 415.84711136 108.82452176 415.84281981 112.73849297 C415.84034346 116.97040149 415.84937805 121.20228836 415.8568573 125.43418884 C415.86958161 133.7148873 415.87140079 141.99555329 415.86905704 150.27625987 C415.867271 157.01071245 415.86902963 163.74515522 415.87328148 170.47960663 C415.87387667 171.43961111 415.87447186 172.39961559 415.87508508 173.38871111 C415.87629689 175.33924427 415.87751102 177.28977742 415.87872746 179.24031058 C415.88959448 197.51726699 415.88744461 215.79420493 415.88134261 234.07116237 C415.87617547 250.76985724 415.88742505 267.46849373 415.90644083 284.16717705 C415.92584112 301.33588165 415.93407131 318.50455866 415.93031758 335.67327428 C415.9284087 345.30312982 415.93086244 354.93293571 415.94503212 364.56278229 C415.95697492 372.76185063 415.95831848 380.96083876 415.94624195 389.15990826 C415.94037327 393.3379949 415.93919773 397.51593501 415.95124435 401.69401169 C415.96217129 405.52852728 415.95891993 409.36277522 415.94498267 413.19727865 C415.94112171 415.22069657 415.95182696 417.2441267 415.96327955 419.2675159 C415.89462289 431.03623992 414.37579117 442.84618774 409.25421143 453.57319641 C408.94789795 454.23923889 408.64158447 454.90528137 408.32598877 455.59150696 C397.13685777 479.47922966 377.83162043 498.21515606 353.06671143 507.58491516 C343.20805956 510.71224694 333.70728511 512.56421035 323.362854 512.53535461 C322.39728073 512.54046555 321.43170746 512.54557648 320.43687439 512.55084229 C317.27826565 512.56462546 314.11987771 512.56379087 310.96124268 512.56147766 C308.75027893 512.56536914 306.53931593 512.56970474 304.32835388 512.57446289 C299.70962084 512.5818996 295.0909643 512.58165114 290.472229 512.57637024 C284.56091559 512.57056135 278.64991406 512.58755338 272.73865223 512.61071491 C268.17897215 512.62545665 263.61936727 512.62632364 259.05966759 512.62320518 C256.88002591 512.62371759 254.70037993 512.62894012 252.52076149 512.63901711 C249.47442988 512.65138046 246.42870741 512.64459153 243.38238525 512.63301086 C242.48818878 512.6406546 241.59399231 512.64829834 240.67269897 512.65617371 C235.22156844 512.610469 231.38503315 511.87393425 226.56671143 509.26069641 C222.28718118 503.69730709 222.41729528 498.09098167 222.40899658 491.30805969 C222.40391586 490.40337448 222.39883514 489.49868927 222.39360046 488.56658936 C222.38290426 486.60176179 222.37428114 484.63692209 222.36748123 482.67207718 C222.35566023 479.55098961 222.33619493 476.43003843 222.31436157 473.30900574 C222.25288282 464.43455122 222.19889694 455.56010858 222.16534424 446.6855011 C222.14425773 441.25370977 222.10883616 435.82216417 222.06458664 430.39051437 C222.05052802 428.33112887 222.04172741 426.27169984 222.03853226 424.21226883 C222.00603806 405.25909125 220.31339685 388.86029466 208.56671143 373.26069641 C208.01112549 372.72186829 207.45553955 372.18304016 206.88311768 371.62788391 C205.56671143 370.26069641 205.56671143 370.26069641 205.56671143 368.26069641 C206.22453613 368.16570862 206.88236084 368.07072083 207.56011963 367.97285461 C240.89524599 363.08810917 276.66759847 354.73108194 298.4085083 326.50654602 C313.87114046 305.46901128 320.53645253 279.07960885 321.56671143 253.26069641 C321.59394287 252.57958801 321.62117432 251.89847961 321.64923096 251.19673157 C322.55779964 224.74538286 316.60720539 200.19086834 299.56671143 179.26069641 C298.99178955 178.73346985 298.41686768 178.20624329 297.82452393 177.66304016 C296.56671143 176.26069641 296.56671143 176.26069641 296.69171143 173.01069641 C297.12948466 170.31027503 297.70263231 167.66648731 298.31280518 164.99897766 C302.52871829 146.01728272 300.41519867 129.28249465 294.33624268 110.77241516 C293.56671143 108.26069641 293.56671143 108.26069641 293.56671143 106.26069641 C271.34160627 106.33215977 248.66479686 116.86461201 230.81671143 129.57319641 C224.29244609 133.90722795 224.29244609 133.90722795 219.50421143 133.07319641 C217.52040725 132.48443581 215.54201159 131.87738701 213.56671143 131.26069641 C210.31048742 130.51710874 207.03509469 129.88532726 203.75421143 129.26069641 C202.4004541 128.9997821 202.4004541 128.9997821 201.01934814 128.7335968 C169.57774379 122.87304912 138.08379155 124.47201318 106.94561768 131.13960266 C106.00830811 131.33263977 105.07099854 131.52567688 104.10528564 131.7245636 C101.99343914 132.17057388 99.89331916 132.67167462 97.79718018 133.18647766 C93.35628618 133.28850546 90.79422294 131.36652551 87.31671143 128.88569641 C73.47140007 119.65875386 58.38695717 113.28869733 42.56671143 108.26069641 C41.55157471 107.93778625 41.55157471 107.93778625 40.51593018 107.60835266 C37.60795735 107.08969618 34.766164 107.16870189 31.81671143 107.19819641 C30.0610083 107.21173157 30.0610083 107.21173157 28.26983643 107.22554016 C27.37780518 107.23714172 26.48577393 107.24874329 25.56671143 107.26069641 C18.76507706 127.71752038 15.85070357 146.63315098 21.69171143 167.72163391 C22.45696249 170.81680116 23.00081102 173.11759553 22.56671143 176.26069641 C21.35186768 177.97163391 21.35186768 177.97163391 19.62921143 179.63569641 C1.19651822 199.52655399 -3.33041538 227.10599967 -2.43328857 253.26069641 C-0.96555377 283.67741209 7.81956689 315.89382166 30.69171143 337.32319641 C54.26975016 357.32027022 83.49203946 364.7513998 113.56671143 368.26069641 C112.22344757 371.15191195 110.6766152 373.52185334 108.69171143 376.01069641 C104.18020567 382.01143707 101.79907487 386.78222491 100.57940674 394.2780304 C99.92340387 397.95007665 99.14051454 400.83099339 97.56671143 404.26069641 C93.14509893 407.21573446 88.76167399 408.32930557 83.56671143 409.26069641 C82.66178955 409.45147766 81.75686768 409.64225891 80.82452393 409.83882141 C75.98940399 410.46495205 71.18776626 410.52617851 66.31671143 410.57319641 C65.33057861 410.60220032 64.3444458 410.63120422 63.32843018 410.66108704 C50.7668125 410.76866347 40.7277356 405.228847 31.62921143 396.82319641 C26.96393744 391.99961972 23.52047086 386.35391053 19.87139893 380.75679016 C12.82470128 369.98800524 2.96020793 362.22727364 -9.43328857 358.26069641 C-15.87775394 357.13125403 -21.40020752 356.39999193 -27.43328857 359.26069641 C-25.84024263 365.83201092 -19.83827501 369.70747601 -14.43328857 373.19819641 C-1.87962181 381.82884231 5.62782298 396.09446887 11.37921143 409.88569641 C16.61006772 422.40671772 23.64145896 429.21835784 36.00421143 435.01069641 C53.05080387 441.5988565 71.96794493 441.05808038 89.89752197 439.7480011 C91.1491362 439.65702148 92.40075043 439.56604187 93.69029236 439.4723053 C94.63951065 439.40247437 95.58872894 439.33264343 96.56671143 439.26069641 C96.63634388 447.37121884 96.68958958 455.48161552 96.72214794 463.59236336 C96.73777749 467.35886855 96.75896566 471.12516862 96.79302979 474.89155579 C96.82572077 478.52904643 96.84358483 482.16634026 96.85134315 485.80396652 C96.85686927 487.18900015 96.86766048 488.5740235 96.8839016 489.95897293 C96.9058027 491.90465462 96.90693791 493.85053602 96.9072876 495.79634094 C96.91728035 497.45513779 96.91728035 497.45513779 96.92747498 499.14744568 C96.49150854 502.90966836 95.68741168 505.11101383 93.56671143 508.26069641 C88.04285778 512.47316689 83.54103951 512.83583008 76.73858643 512.7624054 C75.776548 512.76780838 74.81450958 512.77321136 73.82331848 512.77877808 C70.65413278 512.79124642 67.48585955 512.77477648 64.31671143 512.75679016 C62.09820508 512.75694529 59.87969847 512.75843663 57.66119385 512.76119995 C53.01092546 512.76258346 48.36096562 512.75004158 43.71075439 512.72724915 C37.78777332 512.6989977 31.86530981 512.70156656 25.94229126 512.71433926 C21.35737802 512.72134318 16.77258144 512.7134515 12.18768311 512.70108223 C10.0062912 512.69660398 7.82488658 512.69619876 5.64349365 512.70014763 C-9.30816586 512.71453381 -23.97032876 512.52428112 -37.74578857 505.94819641 C-38.41110596 505.64260803 -39.07642334 505.33701965 -39.76190186 505.02217102 C-63.90355797 493.72500128 -81.70751831 474.62467671 -91.75750732 450.01850891 C-95.71812037 438.6814381 -96.72843963 427.78637543 -96.69398499 415.82740784 C-96.69701106 414.39317208 -96.70090281 412.95893793 -96.70557755 411.5247066 C-96.71580776 407.61074278 -96.71368851 403.69687106 -96.70939696 399.78289986 C-96.70692061 395.55099133 -96.7159552 391.31910447 -96.72343445 387.08720398 C-96.73615875 378.80650553 -96.73797793 370.52583954 -96.73563419 362.24513295 C-96.73384815 355.51068037 -96.73560678 348.77623761 -96.73985863 342.04178619 C-96.74045382 341.08178172 -96.74104901 340.12177724 -96.74166223 339.13268171 C-96.74287404 337.18214855 -96.74408817 335.2316154 -96.74530461 333.28108224 C-96.75617163 315.00412583 -96.75402175 296.72718789 -96.74791976 278.45023045 C-96.74275262 261.75153558 -96.7540022 245.05289909 -96.77301798 228.35421577 C-96.79241827 211.18551118 -96.80064846 194.01683417 -96.79689473 176.84811854 C-96.79498585 167.218263 -96.79743959 157.58845711 -96.81160927 147.95861053 C-96.82355206 139.75954219 -96.82489563 131.56055406 -96.8128191 123.36148456 C-96.80695042 119.18339792 -96.80577488 115.00545781 -96.8178215 110.82738113 C-96.82874844 106.99286554 -96.82549708 103.1586176 -96.81155982 99.32411417 C-96.80769886 97.30069625 -96.81840411 95.27726612 -96.82985669 93.25387692 C-96.76119757 81.48472985 -95.24188062 69.67576469 -90.12078857 58.94819641 C-89.8152002 58.28287903 -89.50961182 57.61756165 -89.19476318 56.93208313 C-77.89759344 32.79042702 -58.79726887 14.98646668 -34.19110107 4.93647766 C-22.85403026 0.97586461 -11.9589676 -0.03445465 0 0 Z " fill="#000000" transform="translate(96.43328857421875,-0.2606964111328125)"/>
<path d="M0 0 C3.43986596 0.14637727 5.35276801 0.41540336 7.9375 2.75 C9.27773867 5.58815249 8.90110078 7.05094291 8 10 C5.8125 10.75 5.8125 10.75 3 11 C0.1875 9.375 0.1875 9.375 -2 7 C-2.4375 4.375 -2.4375 4.375 -2 2 C-1.34 1.34 -0.68 0.68 0 0 Z " fill="#000000" transform="translate(124,399)"/>
<path d="M0 0 C1.051875 0.14695312 1.051875 0.14695312 2.125 0.296875 C3.176875 0.42835938 3.176875 0.42835938 4.25 0.5625 C6.125 1.046875 6.125 1.046875 8.125 3.046875 C7.75 6.171875 7.75 6.171875 7.125 9.046875 C-0.30357143 9.33258929 -0.30357143 9.33258929 -3.875 7.046875 C-4 4.671875 -4 4.671875 -3.875 2.046875 C-1.875 0.046875 -1.875 0.046875 0 0 Z " fill="#000000" transform="translate(142.875,409.953125)"/>
<path d="M0 0 C0.70125 0.00515625 1.4025 0.0103125 2.125 0.015625 C2.82625 0.01046875 3.5275 0.0053125 4.25 0 C6.125 0.265625 6.125 0.265625 8.125 2.265625 C7.56944444 6.82118056 7.56944444 6.82118056 6.125 8.265625 C4.62761876 8.3635307 3.12557108 8.39537364 1.625 8.390625 C0.8103125 8.39320313 -0.004375 8.39578125 -0.84375 8.3984375 C-2.875 8.265625 -2.875 8.265625 -3.875 7.265625 C-4.0625 4.828125 -4.0625 4.828125 -3.875 2.265625 C-1.875 0.265625 -1.875 0.265625 0 0 Z " fill="#000000" transform="translate(163.875,413.734375)"/>
<path d="M0 0 C2 2 2 2 2.125 4.625 C2.08375 5.40875 2.0425 6.1925 2 7 C-1.39620731 9.08997373 -4.05163095 9.2632246 -8 9 C-9 8 -9 8 -9.25 5.0625 C-9.1675 4.051875 -9.085 3.04125 -9 2 C-5.54754176 -0.30163882 -4.05261287 -0.34490322 0 0 Z " fill="#000000" transform="translate(189,411)"/>
<path d="M0 0 C2.46800047 1.15173355 4.04783565 2.04783565 6 4 C6.125 7.125 6.125 7.125 6 10 C3.75 10.75 3.75 10.75 1 11 C-1.3125 9.375 -1.3125 9.375 -3 7 C-3.4375 4.375 -3.4375 4.375 -3 2 C-2.01 1.34 -1.02 0.68 0 0 Z " fill="#000000" transform="translate(113,384)"/>
<path d="M0 0 C3.65316671 1.24976756 4.78065836 1.67098753 7 5 C6.625 7.1875 6.625 7.1875 6 9 C3.6875 9.25 3.6875 9.25 1 9 C-0.875 7.25 -0.875 7.25 -2 5 C-1.75203633 2.83031791 -1.55766393 1.55766393 0 0 Z " fill="#000000" transform="translate(102,371)"/>
<path d="M0 0 C2.31 0.33 4.62 0.66 7 1 C7.5625 2.9375 7.5625 2.9375 8 5 C7 6 7 6 4.5625 6.1875 C2 6 2 6 0 4 C0 2.68 0 1.36 0 0 Z " fill="#000000" transform="translate(90,363)"/>
</svg>
