<?xml version="1.0" encoding="UTF-8"?>
<svg version="1.1" xmlns="http://www.w3.org/2000/svg" width="512" height="512">
<path d="M0 0 C1.63309093 -0.00417981 3.26617895 -0.00966086 4.89926165 -0.01631981 C9.35827209 -0.03070842 13.81709665 -0.0265504 18.27611697 -0.019153 C23.0962963 -0.01440722 27.91643623 -0.02694366 32.73660278 -0.03717041 C42.16887874 -0.05433651 51.60108802 -0.05520291 61.03337554 -0.04995751 C68.70316225 -0.04591028 76.3729293 -0.04736593 84.04271507 -0.05270576 C85.68234457 -0.0538284 85.68234457 -0.0538284 87.35509789 -0.05497371 C89.57596551 -0.05650525 91.79683314 -0.05804359 94.01770075 -0.05958868 C114.82887802 -0.07330595 135.64001767 -0.06788159 156.45119407 -0.05640347 C175.47132249 -0.04647324 194.4913536 -0.05940951 213.51146702 -0.08333766 C233.06227401 -0.10774727 252.61303572 -0.11733186 272.16385764 -0.11068493 C283.13174659 -0.10719668 294.09956073 -0.10939867 305.06743813 -0.12693596 C314.40469083 -0.14168127 323.74181605 -0.142263 333.07906631 -0.12486505 C337.83843908 -0.11637164 342.59758433 -0.11416479 347.35694504 -0.1295166 C351.7225472 -0.14342339 356.08772823 -0.13852421 360.4533064 -0.11927737 C362.02386249 -0.11553531 363.59445281 -0.11838696 365.16497824 -0.12888902 C385.88154904 -0.25745587 403.33778018 5.91590528 418.62419128 20.38768005 C423.83434634 25.72855585 427.53892735 31.67153485 430.93669128 38.26268005 C431.42528625 39.19769348 431.42528625 39.19769348 431.92375183 40.15159607 C437.3747468 51.2761624 438.06296219 62.58622921 438.01187134 74.76348877 C438.01605115 76.3965797 438.02153219 78.02966772 438.02819115 79.66275042 C438.04257976 84.12176085 438.03842174 88.58058542 438.03102434 93.03960574 C438.02627856 97.85978507 438.038815 102.679925 438.04904175 107.50009155 C438.06620785 116.93236751 438.06707425 126.36457679 438.06182884 135.79686431 C438.05778162 143.46665102 438.05923727 151.13641807 438.0645771 158.80620384 C438.06532552 159.89929017 438.06607395 160.9923765 438.06684505 162.11858666 C438.06837658 164.33945428 438.06991493 166.56032191 438.07146002 168.78118952 C438.08517729 189.59236679 438.07975293 210.40350644 438.0682748 231.21468284 C438.05834458 250.23481126 438.07128085 269.25484237 438.095209 288.27495579 C438.11961861 307.82576278 438.1292032 327.37652449 438.12255627 346.92734641 C438.11906802 357.89523536 438.12127001 368.8630495 438.1388073 379.8309269 C438.15355261 389.1681796 438.15413434 398.50530482 438.13673639 407.84255508 C438.12824298 412.60192785 438.12603613 417.3610731 438.14138794 422.12043381 C438.15529472 426.48603597 438.15039554 430.851217 438.1311487 435.21679517 C438.12740664 436.78735126 438.1302583 438.35794158 438.14076035 439.92846701 C438.26932721 460.64503781 432.09596606 478.10126895 417.62419128 493.38768005 C412.28331549 498.59783511 406.34033649 502.30241612 399.74919128 505.70018005 C398.81417786 506.18877502 398.81417786 506.18877502 397.86027527 506.6872406 C386.72757309 512.14222211 375.41395821 512.82522518 363.22819519 512.76863098 C361.59296673 512.77209343 359.9577406 512.77686192 358.3225193 512.78281271 C353.85771126 512.79527176 349.39309696 512.78917568 344.92828846 512.77985406 C340.1020359 512.77304292 335.27581574 512.78355501 330.4495697 512.79179382 C321.00626413 512.80511136 311.56303023 512.80226224 302.11972189 512.7935559 C294.44275927 512.78677197 286.76581669 512.7858657 279.08885193 512.78912735 C277.99489943 512.78958705 276.90094693 512.79004675 275.77384436 512.79052038 C273.55127954 512.79147958 271.32871472 512.79245222 269.10614991 512.79343815 C248.2807542 512.80198625 227.45539814 512.79216702 206.63000894 512.77603705 C188.77323215 512.76263441 170.91651389 512.76496266 153.05973816 512.77879333 C132.30723546 512.79485939 111.55476749 512.80116233 90.80225945 512.79195654 C88.58801652 512.79100093 86.37377358 512.79005782 84.15953064 512.78912735 C82.52549174 512.78843311 82.52549174 512.78843311 80.85844195 512.78772485 C73.19353755 512.78513804 65.52865525 512.78949929 57.86375427 512.79656601 C48.51874549 512.8049926 39.17381228 512.80267649 29.82881212 512.78672378 C25.06377283 512.77885668 20.29885938 512.7757228 15.53382111 512.78567123 C11.16658605 512.79465103 6.79959279 512.78963148 2.43237948 512.77373858 C0.85784033 512.77040464 -0.71671952 512.77205339 -2.29124522 512.77936594 C-14.48539858 512.83162731 -25.50927746 511.4404312 -36.43830872 505.76268005 C-37.11313293 505.41640564 -37.78795715 505.07013123 -38.48323059 504.71336365 C-51.68648988 497.69402861 -60.89078029 487.69885124 -67.68830872 474.51268005 C-68.17690369 473.57766663 -68.17690369 473.57766663 -68.67536926 472.62376404 C-74.12636424 461.4991977 -74.81457962 450.1891309 -74.76348877 438.01187134 C-74.76766858 436.37878041 -74.77314963 434.74569239 -74.77980858 433.11260968 C-74.79419719 428.65359925 -74.79003917 424.19477469 -74.78264177 419.73575437 C-74.77789599 414.91557504 -74.79043243 410.0954351 -74.80065918 405.27526855 C-74.81782528 395.8429926 -74.81869168 386.41078332 -74.81344628 376.9784958 C-74.80939905 369.30870909 -74.8108547 361.63894204 -74.81619453 353.96915627 C-74.81694296 352.87606994 -74.81769138 351.78298361 -74.81846248 350.65677345 C-74.81999402 348.43590582 -74.82153236 346.2150382 -74.82307745 343.99417058 C-74.83679472 323.18299331 -74.83137036 302.37185367 -74.81989224 281.56067727 C-74.80996201 262.54054885 -74.82289828 243.52051773 -74.84682643 224.50040432 C-74.87123604 204.94959733 -74.88082063 185.39883562 -74.8741737 165.8480137 C-74.87068545 154.88012475 -74.87288744 143.91231061 -74.89042473 132.94443321 C-74.90517004 123.60718051 -74.90575177 114.27005529 -74.88835382 104.93280502 C-74.87986041 100.17343226 -74.87765356 95.41428701 -74.89300537 90.6549263 C-74.90691216 86.28932414 -74.90201297 81.92414311 -74.88276614 77.55856494 C-74.87902408 75.98800885 -74.88187573 74.41741853 -74.89237779 72.84689309 C-75.02094464 52.1303223 -68.84758349 34.67409116 -54.37580872 19.38768005 C-49.03493292 14.17752499 -43.09195392 10.47294399 -36.50080872 7.07518005 C-35.87746643 6.74945007 -35.25412415 6.42372009 -34.6118927 6.08811951 C-23.48732637 0.63712453 -12.17725956 -0.05109085 0 0 Z M34.66325378 110.0478363 C25.18743248 120.92143201 22.68539303 132.41021278 23.42887878 146.35057068 C24.52028857 157.7339747 31.70384124 167.44050602 40.20231628 174.59861755 C49.15859152 181.21470474 59.49491739 184.5077188 70.62419128 183.38768005 C79.04207712 182.03032448 85.63205702 179.21743205 92.62419128 174.38768005 C93.95450378 173.52143005 93.95450378 173.52143005 95.31169128 172.63768005 C104.09116069 164.09549361 109.58102082 152.66767064 109.93669128 140.38768005 C109.78144 127.58807386 104.3730366 117.33905089 95.87419128 108.13768005 C78.31099016 91.24739851 51.65939389 93.94785631 34.66325378 110.0478363 Z M206.39811707 218.65672302 C203.57947649 221.78019283 200.95907381 224.88535627 198.62419128 228.38768005 C198.6200824 227.80800476 198.61597351 227.22832947 198.61174011 226.63108826 C198.57869852 223.98643896 198.50804864 221.34406166 198.43669128 218.70018005 C198.4308905 217.78816833 198.42508972 216.87615662 198.41911316 215.93650818 C198.26669995 211.27943796 198.15629246 209.06373131 195.19841003 205.3056488 C191.68619194 202.68880649 190.01633338 202.25911683 185.70304871 202.22654724 C184.67825912 202.2169397 183.65346954 202.20733215 182.59762573 202.19743347 C181.48619705 202.19318359 180.37476837 202.18893372 179.22966003 202.18455505 C177.52040092 202.17600494 177.52040092 202.17600494 175.77661133 202.1672821 C173.36147493 202.15782236 170.94632556 202.15129427 168.53117371 202.14744568 C164.83734058 202.1377474 161.14406542 202.10673541 157.45036316 202.07518005 C155.10596543 202.06864945 152.76156371 202.0633992 150.41716003 202.05955505 C149.31180405 202.04720825 148.20644806 202.03486145 147.06759644 202.0221405 C146.03335037 202.0251416 144.99910431 202.0281427 143.93351746 202.03123474 C143.02687851 202.02758911 142.12023956 202.02394348 141.18612671 202.02018738 C138.03684832 202.47193051 136.18732273 203.52641871 133.62419128 205.38768005 C131.12796563 209.13201853 131.33650615 212.04817191 131.35003662 216.38349915 C131.34479994 217.20741217 131.33956326 218.03132519 131.3341679 218.88020527 C131.31912353 221.65081189 131.31846178 224.42123455 131.3177948 227.19187927 C131.31017632 229.17433485 131.30174936 231.15678747 131.29257202 233.13923645 C131.27059 238.53179019 131.2618232 243.92428722 131.25674558 249.3168807 C131.25310652 252.68405554 131.24686883 256.05121541 131.23974419 259.41838455 C131.21523727 271.15994675 131.20219501 282.90146468 131.19865417 294.64305115 C131.19501746 305.59659805 131.16511541 316.54986499 131.12324959 327.5033263 C131.08858851 336.90042456 131.07310646 346.29742986 131.07240814 355.69459164 C131.07161393 361.31022779 131.06280901 366.9255789 131.03441048 372.54114914 C131.00830143 377.82223881 131.00598461 383.10280565 131.02206612 388.38393021 C131.02388629 390.3233631 131.01713885 392.26282557 131.00124741 394.20219421 C130.98088689 396.84805119 130.99127866 399.49206161 131.00946045 402.13789368 C130.99626048 402.90725467 130.98306051 403.67661566 130.96946055 404.46929061 C131.032496 408.47921035 131.4714181 410.19989057 134.03669453 413.35313988 C137.85990203 416.35931535 140.64155127 416.50955351 145.389328 416.54881287 C146.33065582 416.55842041 147.27198364 416.56802795 148.24183655 416.57792664 C149.75754745 416.58430145 149.75754745 416.58430145 151.30387878 416.59080505 C152.87215927 416.59935516 152.87215927 416.59935516 154.47212219 416.608078 C156.68279511 416.61751801 158.89348204 416.62405801 161.10417175 416.62791443 C164.47958479 416.63762366 167.85438975 416.66865849 171.22966003 416.70018005 C173.37939601 416.70671013 175.52913633 416.71196058 177.67887878 416.71580505 C179.188517 416.73432526 179.188517 416.73432526 180.72865295 416.7532196 C186.08923278 416.73624294 190.06464593 416.53765268 194.62419128 413.38768005 C197.23508556 410.4797856 197.99884919 408.65408125 197.9960022 404.76237488 C198.0027597 403.83761353 198.00951721 402.91285217 198.01647949 401.96006775 C198.00876022 400.95230286 198.00104095 399.94453796 197.99308777 398.90623474 C197.99685425 397.83895142 198.00062073 396.77166809 198.00450134 395.67204285 C198.01094015 393.35199105 198.01059787 391.03191288 198.00431633 388.71186066 C197.99520509 385.02722633 198.00543477 381.34310093 198.02093506 377.65849304 C198.06100911 367.18118614 198.06225139 356.70391803 198.0599823 346.22654724 C198.05993087 339.81569857 198.0792706 333.40512084 198.10931587 326.99434662 C198.12005337 323.3873779 198.10805628 319.7809468 198.0954895 316.17399597 C198.12458611 297.815724 199.47571721 279.32894634 212.59684753 265.14549255 C221.34588469 257.55962219 231.50353139 256.68777838 242.62419128 257.38768005 C250.70500203 258.72316418 257.33656692 262.07127528 262.34684753 268.6493988 C269.55485658 279.93072992 270.76883794 291.59165004 270.78190613 304.65965271 C270.78698685 305.77430405 270.79206757 306.88895538 270.79730225 308.03738403 C270.80797287 310.44907989 270.81660591 312.86078544 270.82342148 315.27249527 C270.83524309 319.08864212 270.85470176 322.90467748 270.87654114 326.72077942 C270.93806728 337.56771935 270.99252656 348.41463752 271.02555847 359.26170349 C271.04587019 365.9028807 271.08174666 372.54386732 271.12631607 379.18493271 C271.14049061 381.71508216 271.14920177 384.2452683 271.15237045 386.77545547 C271.15726635 390.30869133 271.18038844 393.84137283 271.20768738 397.37449646 C271.20468124 398.4208577 271.20167511 399.46721893 271.19857788 400.54528809 C271.22545402 407.48278472 271.22545402 407.48278472 274.62419128 413.38768005 C277.99166849 415.63266486 279.17215803 415.65170781 283.11784363 415.69407654 C284.24266144 415.71006393 285.36747925 415.72605133 286.52638245 415.74252319 C287.74201874 415.74788589 288.95765503 415.7532486 290.21012878 415.7587738 C291.45920013 415.76780228 292.70827148 415.77683075 293.99519348 415.78613281 C296.63990186 415.80065352 299.28417774 415.81032162 301.92887878 415.81321716 C305.31087675 415.81859879 308.69167897 415.85626875 312.07333946 415.90196133 C315.30636474 415.93893415 318.5394205 415.94024825 321.77262878 415.9462738 C322.98421661 415.96580612 324.19580444 415.98533844 325.44410706 416.00546265 C326.57522919 415.99938492 327.70635132 415.99330719 328.87174988 415.98704529 C329.86419708 415.99211594 330.85664429 415.99718658 331.87916565 416.00241089 C335.9774464 415.08462727 337.25531087 413.87814484 339.62419128 410.38768005 C340.35518088 406.39859766 340.28631607 402.46488777 340.23942566 398.41917419 C340.24774918 396.59840111 340.24774918 396.59840111 340.25624084 394.74084473 C340.26602751 391.41275044 340.25342004 388.08621017 340.22995567 384.75828099 C340.20976264 381.25319522 340.21573194 377.74814115 340.21806335 374.24301147 C340.21800975 368.33903009 340.19826417 362.43536826 340.16618347 356.53147888 C340.12957961 349.76353643 340.12046756 342.99601681 340.12748098 336.2279883 C340.13386104 329.67179686 340.12287672 323.1157465 340.10351562 316.55958366 C340.09546589 313.79503256 340.09260873 311.03055488 340.09420776 308.26599312 C340.08041417 278.88002738 339.47597642 244.62397589 318.62419128 221.38768005 C317.9809491 220.65291443 317.33770691 219.9181488 316.67497253 219.16111755 C304.971291 206.5959442 288.1401541 200.08869144 271.08634949 199.26512146 C247.76519851 198.60196077 223.39292718 200.5125633 206.39811707 218.65672302 Z M34.62419128 206.38768005 C32.61748307 211.06644968 32.33763255 215.41594824 32.36349487 220.43382263 C32.35966933 221.22692494 32.35584378 222.02002726 32.35190231 222.83716297 C32.3416118 225.48558051 32.34555689 228.13377964 32.34953308 230.7822113 C32.34518448 232.68466899 32.34000083 234.58712492 32.33404541 236.48957825 C32.32066158 241.650638 32.32007596 246.81162449 32.32260871 251.97269821 C32.32367863 256.28199891 32.31879462 260.59128479 32.31400329 264.90058231 C32.30291067 275.06588919 32.30246962 285.23115911 32.30851746 295.39646912 C32.31456079 305.88363061 32.30223651 316.37065805 32.28094739 326.85779667 C32.26333785 335.86346575 32.25732893 344.86909213 32.26058513 353.87477779 C32.26239883 359.25278303 32.25975287 364.6306926 32.24587059 370.00868225 C32.23330711 375.06483042 32.23522237 380.12076931 32.24828148 385.17691422 C32.25064986 387.03206579 32.24790322 388.88723203 32.23965836 390.74236679 C32.22921152 393.27566711 32.2372747 395.80826253 32.24996948 398.34153748 C32.2425952 399.07481168 32.23522091 399.80808588 32.22762316 400.56358051 C32.27684351 405.2354377 33.18797212 408.40728287 35.62419128 412.38768005 C39.4302273 415.94816536 43.11178768 416.50476611 48.18986511 416.54881287 C49.08792374 416.55842041 49.98598236 416.56802795 50.91125488 416.57792664 C52.35663887 416.58430145 52.35663887 416.58430145 53.83122253 416.59080505 C54.8299791 416.59650513 55.82873566 416.6022052 56.85775757 416.608078 C58.97007695 416.61751734 61.08241098 416.62405775 63.19474792 416.62791443 C66.41433107 416.6376127 69.6332737 416.66864355 72.85270691 416.70018005 C74.90804167 416.70671132 76.96338099 416.7119613 79.01872253 416.71580505 C79.97623917 416.72815186 80.9337558 416.74049866 81.92028809 416.7532196 C87.57897697 416.73450666 91.70750029 416.30062798 96.62419128 413.38768005 C99.90607058 409.2357049 100.05047938 405.40068711 100.00514221 400.3032074 C100.00982218 399.49391973 100.01450216 398.68463207 100.01932395 397.85082054 C100.03128098 395.14158572 100.021814 392.43285605 100.01237488 389.72361755 C100.01644026 387.78027552 100.02178196 385.8369358 100.02830505 383.89360046 C100.04198834 378.61681202 100.03667578 373.34019944 100.0271678 368.0634079 C100.01957648 362.5430758 100.02661534 357.02275883 100.03132629 351.50242615 C100.03678538 342.23172805 100.0295882 332.96110164 100.01530457 323.69041443 C99.99897779 312.96978448 100.00426619 302.24932568 100.02078378 291.52869987 C100.03439427 282.32688366 100.03632044 273.125119 100.02846777 263.92329597 C100.02378886 258.42626769 100.02317244 252.92931988 100.03307724 247.43229675 C100.04173822 242.26452872 100.03574078 237.09698152 100.01839447 231.92923737 C100.014425 230.03174456 100.01557153 228.13423319 100.02218246 226.23674774 C100.03036983 223.64829781 100.02011051 221.06055733 100.00514221 218.47215271 C100.01183438 217.71971975 100.01852654 216.9672868 100.0254215 216.19205284 C99.97542608 211.74044391 99.32732962 208.94732564 96.62419128 205.38768005 C91.97204343 201.17766184 86.10834842 201.9378646 80.19059753 201.9540863 C78.52455727 201.94622353 78.52455727 201.94622353 76.82485962 201.9382019 C74.47892593 201.93178631 72.13296006 201.93311267 69.78703308 201.94163513 C66.20287122 201.95014165 62.62030502 201.92138052 59.03630066 201.88963318 C56.75440009 201.88802094 54.47249671 201.88859913 52.19059753 201.8915863 C50.58723289 201.87473534 50.58723289 201.87473534 48.95147705 201.85754395 C43.10208725 201.91217277 39.0250562 202.09326964 34.62419128 206.38768005 Z " fill="#000000" transform="translate(74.37580871582031,-0.3876800537109375)"/>
</svg>
